<svg xmlns="http://www.w3.org/2000/svg" viewBox="0 0 100 100" width="32" height="32">
  <!-- Background Circle -->
  <circle cx="50" cy="50" r="48" fill="#4f46e5" />
  
  <!-- Letter R -->
  <path d="M30 25 L30 75 L45 75 L45 55 L55 55 L65 75 L82 75 L70 52 C75 48 78 42 78 35 C78 28 75 23 70 20 C65 17 60 15 55 15 C50 15 45 15 40 15 L30 15 Z" 
        fill="white" />
  
  <!-- Inner Part of R -->
  <path d="M45 25 L55 25 C58 25 60 27 60 30 C60 33 58 35 55 35 L45 35 Z" 
        fill="#4f46e5" />
</svg> 